<svg xmlns="http://www.w3.org/2000/svg" xmlns:xlink="http://www.w3.org/1999/xlink" width="500" zoomAndPan="magnify" viewBox="0 0 375 149.999998" height="200" preserveAspectRatio="xMidYMid meet" version="1.0"><defs><g/><clipPath id="090a2ab3e2"><path d="M 146.285156 42.128906 L 359.6875 42.128906 L 359.6875 107.871094 L 146.285156 107.871094 Z M 146.285156 42.128906 " clip-rule="nonzero"/></clipPath><clipPath id="e346a98dc2"><path d="M 189.398438 42.128906 L 355.539062 42.128906 C 356.921875 42.128906 358.195312 42.871094 358.882812 44.070312 C 359.566406 45.273438 359.554688 46.746094 358.847656 47.9375 L 326.796875 102.0625 C 324.664062 105.664062 320.792969 107.871094 316.605469 107.871094 L 150.464844 107.871094 C 149.085938 107.871094 147.808594 107.128906 147.125 105.929688 C 146.441406 104.726562 146.453125 103.253906 147.15625 102.0625 L 179.207031 47.9375 C 181.339844 44.335938 185.214844 42.128906 189.398438 42.128906 Z M 189.398438 42.128906 " clip-rule="nonzero"/></clipPath></defs><g clip-path="url(#090a2ab3e2)"><g clip-path="url(#e346a98dc2)"><path fill="#000000" d="M 143.714844 42.128906 L 362.257812 42.128906 L 362.257812 107.871094 L 143.714844 107.871094 Z M 143.714844 42.128906 " fill-opacity="1" fill-rule="nonzero"/></g></g><g fill="#000000" fill-opacity="1"><g transform="translate(12.711629, 96.797092)"><g><path d="M 5 -42.046875 C 5.945312 -42.984375 7.15625 -43.453125 8.625 -43.453125 C 10.101562 -43.453125 11.3125 -42.984375 12.25 -42.046875 C 13.195312 -41.109375 13.671875 -39.898438 13.671875 -38.421875 C 13.671875 -36.941406 13.195312 -35.722656 12.25 -34.765625 C 11.3125 -33.804688 10.101562 -33.328125 8.625 -33.328125 C 7.15625 -33.328125 5.945312 -33.804688 5 -34.765625 C 4.0625 -35.722656 3.59375 -36.941406 3.59375 -38.421875 C 3.59375 -39.898438 4.0625 -41.109375 5 -42.046875 Z M 13.34375 0 L 3.8125 0 L 3.8125 -29.84375 L 13.34375 -29.84375 Z M 13.34375 0 "/></g></g></g><g fill="#000000" fill-opacity="1"><g transform="translate(26.773633, 96.797092)"><g><path d="M 23.359375 -30.28125 C 26.640625 -30.28125 29.273438 -29.238281 31.265625 -27.15625 C 33.265625 -25.070312 34.265625 -22.296875 34.265625 -18.828125 L 34.265625 0 L 24.75 0 L 24.75 -16.171875 C 24.75 -17.898438 24.273438 -19.269531 23.328125 -20.28125 C 22.390625 -21.300781 21.109375 -21.8125 19.484375 -21.8125 C 17.785156 -21.8125 16.390625 -21.253906 15.296875 -20.140625 C 14.210938 -19.035156 13.578125 -17.582031 13.390625 -15.78125 L 13.390625 0 L 3.8125 0 L 3.8125 -29.84375 L 13.390625 -29.84375 L 13.390625 -24.96875 C 15.492188 -28.4375 18.816406 -30.207031 23.359375 -30.28125 Z M 23.359375 -30.28125 "/></g></g></g><g fill="#000000" fill-opacity="1"><g transform="translate(60.877202, 96.797092)"><g><path d="M 14.5 -30.28125 C 18.894531 -30.28125 22.992188 -29.15625 26.796875 -26.90625 L 23.53125 -20.703125 C 19.832031 -22.691406 16.691406 -23.6875 14.109375 -23.6875 C 12.160156 -23.6875 11.1875 -23.003906 11.1875 -21.640625 C 11.1875 -20.898438 11.71875 -20.28125 12.78125 -19.78125 C 13.851562 -19.289062 15.164062 -18.84375 16.71875 -18.4375 C 18.269531 -18.03125 19.8125 -17.519531 21.34375 -16.90625 C 22.875 -16.300781 24.171875 -15.332031 25.234375 -14 C 26.304688 -12.675781 26.84375 -11.054688 26.84375 -9.140625 C 26.84375 -6.148438 25.679688 -3.8125 23.359375 -2.125 C 21.035156 -0.445312 18.007812 0.390625 14.28125 0.390625 C 9 0.390625 4.535156 -1.007812 0.890625 -3.8125 L 3.9375 -9.90625 C 7.4375 -7.4375 10.957031 -6.203125 14.5 -6.203125 C 16.675781 -6.203125 17.765625 -6.882812 17.765625 -8.25 C 17.765625 -9.019531 17.238281 -9.664062 16.1875 -10.1875 C 15.132812 -10.707031 13.851562 -11.164062 12.34375 -11.5625 C 10.832031 -11.96875 9.316406 -12.472656 7.796875 -13.078125 C 6.285156 -13.691406 5.003906 -14.644531 3.953125 -15.9375 C 2.898438 -17.226562 2.375 -18.851562 2.375 -20.8125 C 2.375 -23.800781 3.5 -26.125 5.75 -27.78125 C 8.007812 -29.445312 10.925781 -30.28125 14.5 -30.28125 Z M 14.5 -30.28125 "/></g></g></g><g fill="#000000" fill-opacity="1"><g transform="translate(86.122617, 96.797092)"><g><path d="M 21.203125 -8.25 L 23.078125 -1.609375 C 20.753906 -0.242188 18.097656 0.4375 15.109375 0.4375 C 12.160156 0.4375 9.769531 -0.378906 7.9375 -2.015625 C 6.113281 -3.660156 5.203125 -6 5.203125 -9.03125 L 5.203125 -22.203125 L 1.046875 -22.203125 L 1.046875 -28.453125 L 5.203125 -28.453125 L 5.203125 -36.765625 L 14.71875 -36.765625 L 14.71875 -28.515625 L 22.53125 -28.515625 L 22.53125 -22.203125 L 14.71875 -22.203125 L 14.71875 -10.515625 C 14.71875 -9.367188 14.945312 -8.53125 15.40625 -8 C 15.875 -7.46875 16.570312 -7.21875 17.5 -7.25 C 18.382812 -7.25 19.617188 -7.582031 21.203125 -8.25 Z M 21.203125 -8.25 "/></g></g></g><g fill="#000000" fill-opacity="1"><g transform="translate(107.049679, 96.797092)"><g><path d="M 17.21875 -30.28125 C 21.3125 -30.28125 24.492188 -29.328125 26.765625 -27.421875 C 29.035156 -25.523438 30.1875 -22.878906 30.21875 -19.484375 L 30.21875 0 L 20.875 0 L 20.875 -3.4375 C 18.914062 -0.851562 15.867188 0.4375 11.734375 0.4375 C 8.597656 0.4375 6.109375 -0.425781 4.265625 -2.15625 C 2.421875 -3.894531 1.5 -6.144531 1.5 -8.90625 C 1.5 -11.75 2.484375 -13.953125 4.453125 -15.515625 C 6.429688 -17.085938 9.265625 -17.894531 12.953125 -17.9375 L 20.8125 -17.9375 L 20.8125 -18.375 C 20.8125 -19.851562 20.320312 -21.003906 19.34375 -21.828125 C 18.363281 -22.660156 16.914062 -23.078125 15 -23.078125 C 12.3125 -23.078125 9.34375 -22.25 6.09375 -20.59375 L 3.375 -26.90625 C 8.207031 -29.15625 12.820312 -30.28125 17.21875 -30.28125 Z M 14.671875 -6.03125 C 16.179688 -6.03125 17.507812 -6.40625 18.65625 -7.15625 C 19.800781 -7.914062 20.519531 -8.90625 20.8125 -10.125 L 20.8125 -12.78125 L 14.78125 -12.78125 C 11.90625 -12.78125 10.46875 -11.710938 10.46875 -9.578125 C 10.46875 -8.472656 10.832031 -7.601562 11.5625 -6.96875 C 12.300781 -6.34375 13.335938 -6.03125 14.671875 -6.03125 Z M 14.671875 -6.03125 "/></g></g></g><g fill="#ffffff" fill-opacity="1"><g transform="translate(159.277098, 96.80594)"><g><path d="M 23.359375 -30.28125 C 26.640625 -30.28125 29.273438 -29.238281 31.265625 -27.15625 C 33.265625 -25.070312 34.265625 -22.296875 34.265625 -18.828125 L 34.265625 0 L 24.75 0 L 24.75 -16.171875 C 24.75 -17.898438 24.273438 -19.269531 23.328125 -20.28125 C 22.390625 -21.300781 21.109375 -21.8125 19.484375 -21.8125 C 17.785156 -21.8125 16.390625 -21.253906 15.296875 -20.140625 C 14.210938 -19.035156 13.578125 -17.582031 13.390625 -15.78125 L 13.390625 0 L 3.8125 0 L 3.8125 -29.84375 L 13.390625 -29.84375 L 13.390625 -24.96875 C 15.492188 -28.4375 18.816406 -30.207031 23.359375 -30.28125 Z M 23.359375 -30.28125 "/></g></g></g><g fill="#ffffff" fill-opacity="1"><g transform="translate(193.380666, 96.80594)"><g><path d="M 17.65625 -30.171875 C 22.53125 -30.171875 26.460938 -28.773438 29.453125 -25.984375 C 32.441406 -23.203125 33.9375 -19.519531 33.9375 -14.9375 C 33.9375 -10.363281 32.441406 -6.675781 29.453125 -3.875 C 26.460938 -1.070312 22.53125 0.328125 17.65625 0.328125 C 12.75 0.328125 8.800781 -1.070312 5.8125 -3.875 C 2.820312 -6.675781 1.328125 -10.363281 1.328125 -14.9375 C 1.328125 -19.519531 2.820312 -23.203125 5.8125 -25.984375 C 8.800781 -28.773438 12.75 -30.171875 17.65625 -30.171875 Z M 17.65625 -22.59375 C 15.664062 -22.59375 14.050781 -21.867188 12.8125 -20.421875 C 11.582031 -18.984375 10.96875 -17.125 10.96875 -14.84375 C 10.96875 -12.507812 11.582031 -10.632812 12.8125 -9.21875 C 14.050781 -7.800781 15.664062 -7.09375 17.65625 -7.09375 C 19.613281 -7.09375 21.207031 -7.800781 22.4375 -9.21875 C 23.675781 -10.632812 24.296875 -12.507812 24.296875 -14.84375 C 24.296875 -17.125 23.675781 -18.984375 22.4375 -20.421875 C 21.207031 -21.867188 19.613281 -22.59375 17.65625 -22.59375 Z M 17.65625 -22.59375 "/></g></g></g><g fill="#ffffff" fill-opacity="1"><g transform="translate(225.491145, 96.80594)"><g><path d="M 21.203125 -8.25 L 23.078125 -1.609375 C 20.753906 -0.242188 18.097656 0.4375 15.109375 0.4375 C 12.160156 0.4375 9.769531 -0.378906 7.9375 -2.015625 C 6.113281 -3.660156 5.203125 -6 5.203125 -9.03125 L 5.203125 -22.203125 L 1.046875 -22.203125 L 1.046875 -28.453125 L 5.203125 -28.453125 L 5.203125 -36.765625 L 14.71875 -36.765625 L 14.71875 -28.515625 L 22.53125 -28.515625 L 22.53125 -22.203125 L 14.71875 -22.203125 L 14.71875 -10.515625 C 14.71875 -9.367188 14.945312 -8.53125 15.40625 -8 C 15.875 -7.46875 16.570312 -7.21875 17.5 -7.25 C 18.382812 -7.25 19.617188 -7.582031 21.203125 -8.25 Z M 21.203125 -8.25 "/></g></g></g><g fill="#ffffff" fill-opacity="1"><g transform="translate(246.418207, 96.80594)"><g><path d="M 16.890625 -30.171875 C 22.054688 -30.171875 25.9375 -28.582031 28.53125 -25.40625 C 31.132812 -22.238281 32.269531 -17.882812 31.9375 -12.34375 L 10.96875 -12.34375 C 11.445312 -10.570312 12.289062 -9.207031 13.5 -8.25 C 14.71875 -7.289062 16.210938 -6.8125 17.984375 -6.8125 C 20.722656 -6.8125 23.109375 -7.828125 25.140625 -9.859375 L 30.171875 -4.921875 C 26.960938 -1.421875 22.625 0.328125 17.15625 0.328125 C 12.320312 0.328125 8.472656 -1.050781 5.609375 -3.8125 C 2.753906 -6.582031 1.328125 -10.257812 1.328125 -14.84375 C 1.328125 -19.445312 2.753906 -23.148438 5.609375 -25.953125 C 8.472656 -28.765625 12.234375 -30.171875 16.890625 -30.171875 Z M 10.796875 -17.5 L 22.75 -17.5 C 22.75 -19.300781 22.222656 -20.753906 21.171875 -21.859375 C 20.117188 -22.972656 18.726562 -23.53125 17 -23.53125 C 15.375 -23.53125 14.003906 -22.984375 12.890625 -21.890625 C 11.785156 -20.804688 11.085938 -19.34375 10.796875 -17.5 Z M 10.796875 -17.5 "/></g></g></g><g fill="#ffffff" fill-opacity="1"><g transform="translate(276.590973, 96.80594)"><g><path d="M 14.5 -30.28125 C 18.894531 -30.28125 22.992188 -29.15625 26.796875 -26.90625 L 23.53125 -20.703125 C 19.832031 -22.691406 16.691406 -23.6875 14.109375 -23.6875 C 12.160156 -23.6875 11.1875 -23.003906 11.1875 -21.640625 C 11.1875 -20.898438 11.71875 -20.28125 12.78125 -19.78125 C 13.851562 -19.289062 15.164062 -18.84375 16.71875 -18.4375 C 18.269531 -18.03125 19.8125 -17.519531 21.34375 -16.90625 C 22.875 -16.300781 24.171875 -15.332031 25.234375 -14 C 26.304688 -12.675781 26.84375 -11.054688 26.84375 -9.140625 C 26.84375 -6.148438 25.679688 -3.8125 23.359375 -2.125 C 21.035156 -0.445312 18.007812 0.390625 14.28125 0.390625 C 9 0.390625 4.535156 -1.007812 0.890625 -3.8125 L 3.9375 -9.90625 C 7.4375 -7.4375 10.957031 -6.203125 14.5 -6.203125 C 16.675781 -6.203125 17.765625 -6.882812 17.765625 -8.25 C 17.765625 -9.019531 17.238281 -9.664062 16.1875 -10.1875 C 15.132812 -10.707031 13.851562 -11.164062 12.34375 -11.5625 C 10.832031 -11.96875 9.316406 -12.472656 7.796875 -13.078125 C 6.285156 -13.691406 5.003906 -14.644531 3.953125 -15.9375 C 2.898438 -17.226562 2.375 -18.851562 2.375 -20.8125 C 2.375 -23.800781 3.5 -26.125 5.75 -27.78125 C 8.007812 -29.445312 10.925781 -30.28125 14.5 -30.28125 Z M 14.5 -30.28125 "/></g></g></g></svg>