<svg xmlns="http://www.w3.org/2000/svg" xmlns:xlink="http://www.w3.org/1999/xlink" width="500" zoomAndPan="magnify" viewBox="0 0 375 149.999998" height="200" preserveAspectRatio="xMidYMid meet" version="1.0"><defs><filter x="0%" y="0%" width="100%" height="100%" id="e1d0070931"><feColorMatrix values="0 0 0 0 1 0 0 0 0 1 0 0 0 0 1 0 0 0 1 0" color-interpolation-filters="sRGB"/></filter><g/><clipPath id="2a4e7843c0"><path d="M 23 50.871094 L 90 50.871094 L 90 103.078125 L 23 103.078125 Z M 23 50.871094 " clip-rule="nonzero"/></clipPath><clipPath id="0dfb385aa0"><path d="M 44.335938 50.871094 L 86.042969 50.871094 C 87.257812 50.871094 88.402344 51.457031 89.113281 52.441406 C 89.824219 53.429688 90.015625 54.699219 89.632812 55.851562 L 75.550781 98.097656 C 74.558594 101.070312 71.777344 103.078125 68.640625 103.078125 L 26.933594 103.078125 C 25.71875 103.078125 24.578125 102.492188 23.867188 101.503906 C 23.152344 100.519531 22.960938 99.25 23.34375 98.097656 L 37.425781 55.851562 C 38.417969 52.878906 41.203125 50.871094 44.335938 50.871094 Z M 44.335938 50.871094 " clip-rule="nonzero"/></clipPath><mask id="e446bf48f4"><g filter="url(#e1d0070931)"><rect x="-37.5" width="450" fill="#000000" y="-15" height="179.999997" fill-opacity="0.8"/></g></mask><clipPath id="cb20f4aa24"><path d="M 2 0.921875 L 74.496094 0.921875 L 74.496094 57.078125 L 2 57.078125 Z M 2 0.921875 " clip-rule="nonzero"/></clipPath><clipPath id="b73c0e810f"><path d="M 24.761719 0.921875 L 70.414062 0.921875 C 71.628906 0.921875 72.773438 1.507812 73.484375 2.496094 C 74.195312 3.480469 74.390625 4.75 74.003906 5.902344 L 58.605469 52.097656 C 57.617188 55.070312 54.832031 57.078125 51.695312 57.078125 L 6.042969 57.078125 C 4.828125 57.078125 3.683594 56.492188 2.972656 55.503906 C 2.261719 54.519531 2.070312 53.25 2.453125 52.097656 L 17.851562 5.902344 C 18.84375 2.929688 21.625 0.921875 24.761719 0.921875 Z M 24.761719 0.921875 " clip-rule="nonzero"/></clipPath><clipPath id="229c8aaff7"><rect x="0" width="76" y="0" height="58"/></clipPath></defs><g clip-path="url(#2a4e7843c0)"><g clip-path="url(#0dfb385aa0)"><path fill="#0558ee" d="M 21.683594 50.871094 L 91.222656 50.871094 L 91.222656 103.078125 L 21.683594 103.078125 Z M 21.683594 50.871094 " fill-opacity="1" fill-rule="nonzero"/></g></g><g mask="url(#e446bf48f4)"><g transform="matrix(1, 0, 0, 1, 10, 46)"><g clip-path="url(#229c8aaff7)"><g clip-path="url(#cb20f4aa24)"><g clip-path="url(#b73c0e810f)"><path fill="#21e8e6" d="M 0.792969 0.921875 L 75.589844 0.921875 L 75.589844 57.078125 L 0.792969 57.078125 Z M 0.792969 0.921875 " fill-opacity="1" fill-rule="nonzero"/></g></g></g></g></g><g fill="#000000" fill-opacity="1"><g transform="translate(101.354229, 95.249996)"><g><path d="M 4.765625 -44.234375 L 18.96875 -44.234375 L 18.96875 -11.3125 L 41.671875 -11.3125 L 41.671875 0 L 4.765625 0 Z M 4.765625 -44.234375 "/></g></g></g><g fill="#000000" fill-opacity="1"><g transform="translate(145.199383, 95.249996)"><g><path d="M 4.3125 -37.9375 L 4.3125 -46.609375 L 17.109375 -46.609375 L 17.109375 -37.9375 Z M 4.3125 0 L 4.3125 -33.953125 L 17.109375 -33.953125 L 17.109375 0 Z M 4.3125 0 "/></g></g></g><g fill="#000000" fill-opacity="1"><g transform="translate(167.572024, 95.249996)"><g><path d="M 16.71875 -30.796875 C 19.15625 -33.410156 22.328125 -34.71875 26.234375 -34.71875 C 30.816406 -34.71875 34.351562 -33.226562 36.84375 -30.25 C 39.332031 -27.269531 40.578125 -22.863281 40.578125 -17.03125 C 40.578125 -11.164062 39.332031 -6.734375 36.84375 -3.734375 C 34.351562 -0.734375 30.816406 0.765625 26.234375 0.765625 C 21.515625 0.765625 17.914062 -1.097656 15.4375 -4.828125 L 14.34375 0 L 3.921875 0 L 3.921875 -46.609375 L 16.71875 -46.609375 Z M 22.25 -25.265625 C 20.363281 -25.265625 18.945312 -24.585938 18 -23.234375 C 17.0625 -21.890625 16.59375 -20.144531 16.59375 -18 L 16.59375 -15.875 C 16.59375 -13.738281 17.0625 -12.003906 18 -10.671875 C 18.945312 -9.347656 20.363281 -8.6875 22.25 -8.6875 C 25.9375 -8.6875 27.78125 -10.867188 27.78125 -15.234375 L 27.78125 -18.640625 C 27.78125 -23.054688 25.9375 -25.265625 22.25 -25.265625 Z M 22.25 -25.265625 "/></g></g></g><g fill="#000000" fill-opacity="1"><g transform="translate(211.417181, 95.249996)"><g><path d="M 21.40625 -34.71875 C 27.625 -34.71875 32.375 -33.257812 35.65625 -30.34375 C 38.9375 -27.425781 40.578125 -22.96875 40.578125 -16.96875 L 40.578125 -14.78125 L 15.109375 -14.78125 C 15.109375 -12.34375 15.65625 -10.5 16.75 -9.25 C 17.84375 -8.007812 19.566406 -7.390625 21.921875 -7.390625 C 24.066406 -7.390625 25.640625 -7.835938 26.640625 -8.734375 C 27.648438 -9.640625 28.15625 -10.84375 28.15625 -12.34375 L 40.578125 -12.34375 C 40.578125 -8.226562 39.007812 -5.015625 35.875 -2.703125 C 32.75 -0.390625 28.1875 0.765625 22.1875 0.765625 C 15.882812 0.765625 10.992188 -0.695312 7.515625 -3.625 C 4.046875 -6.5625 2.3125 -11.007812 2.3125 -16.96875 C 2.3125 -22.800781 4.003906 -27.21875 7.390625 -30.21875 C 10.773438 -33.21875 15.445312 -34.71875 21.40625 -34.71875 Z M 21.921875 -26.546875 C 17.890625 -26.546875 15.640625 -24.640625 15.171875 -20.828125 L 27.640625 -20.828125 C 27.640625 -22.585938 27.132812 -23.976562 26.125 -25 C 25.125 -26.03125 23.722656 -26.546875 21.921875 -26.546875 Z M 21.921875 -26.546875 "/></g></g></g><g fill="#000000" fill-opacity="1"><g transform="translate(255.262332, 95.249996)"><g><path d="M 24.5 -34.78125 C 25.476562 -34.78125 26.351562 -34.660156 27.125 -34.421875 C 27.90625 -34.191406 28.296875 -34.054688 28.296875 -34.015625 L 28.296875 -23.28125 L 24.171875 -23.28125 C 21.515625 -23.28125 19.597656 -22.59375 18.421875 -21.21875 C 17.242188 -19.84375 16.65625 -17.804688 16.65625 -15.109375 L 16.65625 0 L 3.859375 0 L 3.859375 -33.953125 L 14.34375 -33.953125 L 15.171875 -28.8125 C 15.941406 -30.78125 17.160156 -32.265625 18.828125 -33.265625 C 20.503906 -34.273438 22.394531 -34.78125 24.5 -34.78125 Z M 24.5 -34.78125 "/></g></g></g><g fill="#000000" fill-opacity="1"><g transform="translate(284.771036, 95.249996)"><g><path d="M 4.3125 -37.9375 L 4.3125 -46.609375 L 17.109375 -46.609375 L 17.109375 -37.9375 Z M 4.3125 0 L 4.3125 -33.953125 L 17.109375 -33.953125 L 17.109375 0 Z M 4.3125 0 "/></g></g></g><g fill="#000000" fill-opacity="1"><g transform="translate(307.143684, 95.249996)"><g><path d="M 21.40625 -34.71875 C 27.363281 -34.71875 32.046875 -33.207031 35.453125 -30.1875 C 38.867188 -27.164062 40.578125 -22.757812 40.578125 -16.96875 C 40.578125 -11.1875 38.867188 -6.785156 35.453125 -3.765625 C 32.046875 -0.742188 27.363281 0.765625 21.40625 0.765625 C 15.445312 0.765625 10.773438 -0.734375 7.390625 -3.734375 C 4.003906 -6.734375 2.3125 -11.144531 2.3125 -16.96875 C 2.3125 -22.800781 4.003906 -27.21875 7.390625 -30.21875 C 10.773438 -33.21875 15.445312 -34.71875 21.40625 -34.71875 Z M 21.40625 -26.046875 C 17.207031 -26.046875 15.109375 -23.625 15.109375 -18.78125 L 15.109375 -15.109375 C 15.109375 -10.304688 17.207031 -7.90625 21.40625 -7.90625 C 25.65625 -7.90625 27.78125 -10.304688 27.78125 -15.109375 L 27.78125 -18.78125 C 27.78125 -23.625 25.65625 -26.046875 21.40625 -26.046875 Z M 21.40625 -26.046875 "/></g></g></g></svg>